<?xml version="1.0" encoding="utf-8"?>
<!-- Generator: Adobe Illustrator 27.5.0, SVG Export Plug-In . SVG Version: 6.00 Build 0)  -->
<svg version="1.1" xmlns="http://www.w3.org/2000/svg" xmlns:xlink="http://www.w3.org/1999/xlink" x="0px" y="0px"
	 viewBox="0 0 1000 1000" style="enable-background:new 0 0 1000 1000;" xml:space="preserve">
<g id="background">
	<rect transform="matrix(-1.836970e-16 1 -1 -1.836970e-16 1000 1.136868e-13)" style="fill:transparent;" width="1000" height="1000"/>
</g>
<g id="object" fill="hsl(0,50%,33%)">
	<g>
		<g>
			<g>
				<path d="M633.674,760.106c-0.12,0-0.242-0.02-0.362-0.062l-399.69-139.888c-0.275-0.096-0.501-0.297-0.627-0.56
					c-0.125-0.262-0.143-0.564-0.047-0.839L365.29,240.629c0.2-0.571,0.824-0.871,1.399-0.673l399.69,139.888
					c0.275,0.096,0.5,0.297,0.627,0.56c0.125,0.262,0.143,0.564,0.047,0.839L634.711,759.371
					C634.552,759.823,634.128,760.106,633.674,760.106z M235.383,618.447L633.001,757.61l131.617-376.057L367,242.39
					L235.383,618.447z"/>
			</g>
		</g>
		<g>
			<g>
				<path d="M628.406,772.763c-0.135,0-0.27-0.025-0.399-0.075L221.239,614.181c-0.271-0.106-0.489-0.315-0.607-0.581
					c-0.117-0.267-0.123-0.569-0.017-0.84l149.957-384.824c0.221-0.565,0.861-0.843,1.421-0.624l406.767,158.507
					c0.565,0.22,0.843,0.856,0.624,1.421L629.428,772.065c-0.105,0.271-0.315,0.489-0.581,0.606
					C628.707,772.732,628.556,772.763,628.406,772.763z M223.059,612.534l404.723,157.711l149.159-382.779l-404.722-157.71
					L223.059,612.534z"/>
			</g>
		</g>
		<g>
			<g>
				<path d="M622.521,785.615c-0.145,0-0.292-0.029-0.433-0.09L208.699,607.58c-0.267-0.115-0.478-0.332-0.585-0.602
					c-0.108-0.271-0.104-0.573,0.011-0.84L376.47,215.049c0.116-0.267,0.332-0.478,0.602-0.586c0.271-0.108,0.573-0.103,0.84,0.012
					L791.302,392.42c0.556,0.24,0.813,0.885,0.574,1.442L623.531,784.951C623.352,785.366,622.946,785.615,622.521,785.615z
					 M210.574,605.998l411.373,177.077l167.479-389.073L378.053,216.925L210.574,605.998z"/>
			</g>
		</g>
		<g>
			<g>
				<path d="M615.998,798.643c-0.161,0-0.32-0.035-0.468-0.105l-419.513-198.21c-0.549-0.259-0.782-0.913-0.524-1.461
					L383.01,201.985c0.124-0.263,0.348-0.466,0.623-0.564c0.274-0.098,0.576-0.083,0.838,0.041l419.513,198.21
					c0.549,0.259,0.782,0.913,0.524,1.461L616.991,798.015c-0.124,0.263-0.348,0.466-0.623,0.564
					C616.248,798.622,616.124,798.643,615.998,798.643z M197.946,598.812l417.529,197.273l186.579-394.897L384.526,203.915
					L197.946,598.812z"/>
			</g>
		</g>
		<g>
			<g>
				<path d="M608.806,811.833c-0.169,0-0.341-0.039-0.502-0.122L183.212,592.401c-0.259-0.133-0.454-0.364-0.542-0.641
					c-0.089-0.277-0.064-0.578,0.07-0.837l207.479-402.161c0.133-0.259,0.364-0.454,0.642-0.542c0.278-0.088,0.579-0.063,0.836,0.07
					l425.092,219.31c0.539,0.278,0.75,0.94,0.473,1.478L609.782,811.238C609.587,811.616,609.204,811.833,608.806,811.833z
					 M185.194,590.954l423.141,218.303l206.473-400.21L391.667,190.743L185.194,590.954z"/>
			</g>
		</g>
		<g>
			<g>
				<path d="M600.925,825.163c-0.187,0-0.372-0.048-0.537-0.14L170.305,583.773c-0.528-0.296-0.717-0.965-0.42-1.494
					l228.234-406.881c0.143-0.254,0.379-0.441,0.66-0.519c0.279-0.081,0.579-0.043,0.834,0.099l430.082,241.249
					c0.528,0.296,0.717,0.965,0.42,1.494L601.882,824.602c-0.143,0.254-0.379,0.44-0.66,0.519
					C601.124,825.149,601.024,825.163,600.925,825.163z M172.336,582.396l428.168,240.175l227.16-404.967L399.496,177.429
					L172.336,582.396z"/>
			</g>
		</g>
		<g>
			<g>
				<path d="M592.322,838.613c-0.194,0-0.391-0.051-0.569-0.16L157.318,574.421c-0.249-0.151-0.426-0.395-0.496-0.678
					c-0.069-0.282-0.023-0.581,0.129-0.83l249.79-410.998c0.315-0.518,0.989-0.683,1.508-0.368L842.682,425.58
					c0.518,0.314,0.683,0.99,0.368,1.508L593.261,838.086C593.054,838.425,592.693,838.613,592.322,838.613z M159.396,573.115
					l432.559,262.893l248.648-409.122L408.046,163.993L159.396,573.115z"/>
			</g>
		</g>
		<g>
			<g>
				<path d="M582.975,852.161c-0.207,0-0.416-0.058-0.601-0.18L144.276,564.318c-0.243-0.16-0.414-0.409-0.473-0.695
					c-0.059-0.285-0.002-0.582,0.158-0.825l272.145-414.464c0.334-0.506,1.016-0.646,1.52-0.315l438.098,287.663
					c0.243,0.16,0.414,0.409,0.473,0.694c0.059,0.285,0.002,0.582-0.157,0.825L583.894,851.666
					C583.683,851.987,583.332,852.161,582.975,852.161z M146.398,563.086l436.263,286.459l270.94-412.629L417.339,150.456
					L146.398,563.086z"/>
			</g>
		</g>
		<g>
			<g>
				<path d="M572.86,865.784c-0.225,0-0.447-0.07-0.634-0.201L131.203,553.441c-0.237-0.168-0.399-0.424-0.447-0.711
					c-0.049-0.287,0.017-0.581,0.185-0.819L426.245,134.68c0.351-0.495,1.035-0.612,1.53-0.262l441.023,312.141
					c0.237,0.168,0.398,0.424,0.447,0.711c0.049,0.287-0.017,0.581-0.185,0.819L573.756,865.32
					c-0.168,0.238-0.424,0.399-0.711,0.448C572.984,865.779,572.922,865.784,572.86,865.784z M133.367,552.283l439.232,310.874
					l294.035-415.44L427.402,136.844L133.367,552.283z"/>
			</g>
		</g>
		<g>
			<g>
				<path d="M561.947,879.455c-0.239,0-0.473-0.078-0.664-0.224L118.127,541.764c-0.231-0.176-0.384-0.437-0.423-0.726
					c-0.039-0.288,0.039-0.581,0.214-0.812l319.262-419.248c0.367-0.482,1.057-0.577,1.538-0.208l443.154,337.467
					c0.482,0.367,0.576,1.056,0.209,1.538L562.82,879.023c-0.177,0.232-0.437,0.384-0.727,0.423
					C562.045,879.452,561.996,879.455,561.947,879.455z M120.329,540.682l441.41,336.137L879.67,459.318L438.262,123.18
					L120.329,540.682z"/>
			</g>
		</g>
		<g>
			<g>
				<path d="M550.21,893.148c-0.252,0-0.498-0.087-0.694-0.248l-444.44-363.636c-0.469-0.384-0.539-1.076-0.154-1.544
					L448.94,107.254c0.184-0.225,0.451-0.368,0.741-0.397c0.288-0.028,0.579,0.058,0.804,0.243l444.44,363.636
					c0.469,0.384,0.539,1.076,0.154,1.544L551.06,892.745c-0.184,0.225-0.451,0.368-0.741,0.397
					C550.283,893.146,550.247,893.148,550.21,893.148z M107.314,528.26l442.742,362.246L892.685,471.74L449.944,109.494
					L107.314,528.26z"/>
			</g>
		</g>
		<g>
			<g>
				<path d="M537.626,906.833c-0.266,0-0.523-0.096-0.725-0.273L92.079,515.916c-0.455-0.4-0.5-1.094-0.1-1.549L461.55,93.54
					c0.192-0.219,0.463-0.353,0.753-0.371c0.282-0.022,0.576,0.079,0.795,0.271l444.824,390.645
					c0.219,0.192,0.352,0.463,0.371,0.754c0.018,0.29-0.078,0.577-0.271,0.795L538.45,906.46c-0.192,0.219-0.463,0.353-0.753,0.371
					C537.673,906.833,537.65,906.833,537.626,906.833z M94.352,514.991l443.174,389.196l368.124-419.178L462.474,95.813
					L94.352,514.991z"/>
			</g>
		</g>
		<g>
			<g>
				<path d="M524.169,920.481c-0.28,0-0.549-0.107-0.752-0.299L79.17,501.697c-0.441-0.416-0.462-1.11-0.046-1.551L475.033,79.864
					c0.199-0.212,0.475-0.336,0.765-0.345c0.307-0.021,0.574,0.099,0.786,0.298l444.247,418.486c0.212,0.2,0.335,0.475,0.345,0.766
					c0.009,0.291-0.099,0.573-0.299,0.785l-395.91,420.281c-0.199,0.212-0.475,0.336-0.765,0.345
					C524.19,920.481,524.179,920.481,524.169,920.481z M81.473,500.852l442.649,416.98l394.405-418.684L475.878,82.168
					L81.473,500.852z"/>
			</g>
		</g>
		<g>
			<g>
				<path d="M509.812,934.058c-0.262,0.036-0.573-0.117-0.78-0.325L66.381,486.583c-0.427-0.431-0.422-1.126,0.009-1.552
					L489.417,66.26c0.207-0.205,0.415-0.314,0.777-0.318c0.292,0.002,0.57,0.118,0.775,0.325l442.651,447.15
					c0.427,0.431,0.422,1.126-0.009,1.552L510.583,933.74C510.379,933.944,510.101,934.058,509.812,934.058z M68.713,485.819
					l441.106,445.589l421.468-417.228L490.181,68.591L68.713,485.819z"/>
			</g>
		</g>
		<g>
			<g>
				<path d="M494.532,947.529c-0.296,0-0.591-0.118-0.806-0.353L53.751,470.553c-0.198-0.214-0.302-0.497-0.291-0.788
					c0.012-0.291,0.138-0.565,0.352-0.763L504.724,52.761c0.216-0.197,0.512-0.294,0.789-0.29c0.29,0.011,0.565,0.138,0.762,0.352
					l439.974,476.624c0.411,0.445,0.384,1.14-0.061,1.551l-450.911,416.24C495.066,947.433,494.799,947.529,494.532,947.529z
					 M56.107,469.87l438.487,475.011L943.893,530.13L505.407,55.119L56.107,469.87z"/>
			</g>
		</g>
		<g>
			<g>
				<path d="M478.304,960.86c-0.308,0-0.615-0.13-0.832-0.382L41.314,453.583c-0.19-0.221-0.284-0.507-0.263-0.798
					c0.021-0.29,0.158-0.56,0.378-0.75L520.98,39.407c0.456-0.395,1.151-0.346,1.548,0.116l436.158,506.895
					c0.19,0.221,0.284,0.508,0.263,0.798c-0.021,0.29-0.158,0.56-0.378,0.75L479.02,960.594
					C478.813,960.772,478.558,960.86,478.304,960.86z M43.694,452.983L478.42,958.215l477.887-411.197L521.58,41.786L43.694,452.983
					z"/>
			</g>
		</g>
	</g>
</g>
</svg>
